<svg width="17" height="17" viewBox="0 0 17 17" fill="none" xmlns="http://www.w3.org/2000/svg">
<g clip-path="url(#clip0_2_158)">
<path d="M16.4523 2.02174C11.5277 0.27107 6.17495 0.126473 1.16302 1.60873C0.963802 1.6564 0.776232 1.74373 0.61151 1.8655C0.446788 1.98727 0.308292 2.14098 0.204291 2.31746C0.10029 2.49394 0.0329167 2.68956 0.00619382 2.89266C-0.020529 3.09575 -0.00605357 3.30215 0.048756 3.49952C0.323068 4.60038 0.723194 5.86521 1.20376 7.01196C1.21201 7.03877 1.2249 7.02588 1.2249 6.99907C1.15529 6.46127 1.56882 5.78219 2.3799 5.53521C6.27775 4.2947 10.4726 4.35024 14.3362 5.69351C14.4787 5.74225 14.6295 5.76197 14.7798 5.75149C14.93 5.74101 15.0767 5.70056 15.211 5.63251C15.3454 5.56446 15.4648 5.4702 15.5621 5.35528C15.6595 5.24036 15.7329 5.10711 15.7779 4.96338C16.2585 3.41651 16.4523 2.36618 16.5003 2.10321C16.5085 2.05423 16.4652 2.03566 16.4523 2.02226V2.02174ZM4.57079 5.42487C3.9804 5.5481 3.16416 5.74198 2.5516 5.94513C1.32699 6.36743 1.38371 7.85758 2.03597 8.33299C2.08393 8.05662 2.3799 7.68073 2.7099 7.55388C3.93244 7.07332 5.24522 6.78612 6.57244 6.66752C5.89801 6.39373 5.24007 6.00134 4.57955 5.42435L4.57079 5.42487ZM14.3197 8.40827C12.5603 7.58162 10.6531 7.11606 8.71074 7.0391C6.76837 6.96214 4.83028 7.27534 3.01102 7.96019C2.42785 8.18037 2.06279 8.88987 2.42785 9.56327C3.0656 10.7163 3.78935 11.8196 4.59296 12.8638C4.47746 12.4637 4.68165 11.7227 5.4654 11.4804C7.63308 10.8142 9.90751 11.0967 11.4193 11.7088C11.8463 11.8805 12.4506 11.7763 12.7893 11.269C13.3671 10.379 13.8925 9.4562 14.363 8.50521C14.3842 8.46241 14.363 8.43044 14.3197 8.40827ZM10.8073 13.7501C10.1732 13.4299 9.59324 13.0122 9.08869 12.5121C8.85511 12.2786 8.51119 11.9429 8.14871 11.5428C7.32113 11.5428 6.51779 11.6258 5.65876 11.9001C4.86108 12.1496 4.78632 13.0711 5.1354 13.5516C5.72579 14.2874 6.13983 14.6845 6.80035 15.3671C7.15039 15.7105 7.62046 15.9039 8.11077 15.9063C8.60109 15.9087 9.07303 15.7199 9.42643 15.38C9.94205 14.8644 10.2592 14.5205 10.8418 13.86C10.8764 13.8249 10.863 13.7636 10.8068 13.7501H10.8073Z" fill="black"/>
</g>
<defs>
<clipPath id="clip0_2_158">
<rect width="16.5" height="16.5" fill="white"/>
</clipPath>
</defs>
</svg>
